<?xml version="1.0" encoding="utf-8"?><svg viewBox="0 0 50 45" xmlns="http://www.w3.org/2000/svg" xmlns:xlink="http://www.w3.org/1999/xlink"><style>:root>svg{display:none}:root>svg:target{display:block}</style><svg viewBox="0 0 24 24" id="icon-arrow" xmlns="http://www.w3.org/2000/svg"><path fill-rule="evenodd" clip-rule="evenodd" d="M9.793 17.957a1 1 0 010-1.414l3.836-3.836a1 1 0 000-1.414L9.793 7.457a1 1 0 011.414-1.414l3.836 3.836a3 3 0 010 4.242l-3.836 3.836a1 1 0 01-1.414 0z"/></svg><svg viewBox="0 0 50 45" id="icon-num-1" xmlns="http://www.w3.org/2000/svg"><path d="M25.984 43.744l-1.562-1.25-.02.025-.018.025 1.6 1.2zm-25.28 0l-1.715 1.029.127.211.174.174 1.414-1.414zm0-7.168l-1.2-1.6-.114.085-.1.1 1.414 1.415zm7.744-.192v2h2v-2h-2zm0-26.88h2V7.136l-2.335.396.335 1.972zm-6.784 1.152l.329 1.973.006-.001-.335-1.972zM.64 10.592l-1.414 1.414.1.1.114.086 1.2-1.6zM.512 4l-1.789-.894-.063.127-.045.135L.512 4zm1.024-.64l-.523-1.93-.033.008-.032.01.588 1.912zM12.16.48l.523 1.93.02-.005.021-.006L12.16.48zm2.112-.32v2h.062l.063-.004L14.272.16zm1.792.32l-.894 1.789.061.03.064.027.769-1.846zm1.216 1.088L19.008.56 17.28 1.568zm.448 34.816h-2v2h2v-2zm8.256.192L24.57 37.99l.1.1.114.086 1.2-1.6zM24.24 42.72c0 .122-.012.154-.004.123a.96.96 0 01.186-.348l3.124 2.498c.596-.744.694-1.645.694-2.273h-4zm.144-.176c.293-.391.645-.506.73-.531.096-.027.107-.013-.026-.013v4a4.11 4.11 0 001.125-.141c.385-.11.95-.353 1.371-.915l-3.2-2.4zm.704-.544H1.664v4h23.424v-4zM1.664 42c-.127 0-.138-.013-.077.004.06.015.292.087.531.326L-.71 45.158c.77.772 1.815.842 2.374.842v-4zm.755.715c.05.084.078.152.091.19.013.04.017.06.016.054a2.194 2.194 0 01-.014-.24h-4c0 .562.06 1.36.477 2.054l3.43-2.058zm.093.005v-5.056h-4v5.056h4zm0-5.056a4.16 4.16 0 01.014-.347l.004-.025-.009.036a1.467 1.467 0 01-.147.336c-.054.09-.136.206-.256.326L-.71 35.162c-.53.53-.657 1.193-.7 1.434a6.25 6.25 0 00-.078 1.068h4zm-.608.512a1.349 1.349 0 01-.315.178.778.778 0 01-.125.04c-.011.002.045-.01.2-.01v-4c-.314 0-.653.02-.984.087a2.892 2.892 0 00-1.176.505l2.4 3.2zm-.24.208h6.784v-4H1.664v4zm8.784-2V9.504h-4v26.88h4zM8.113 7.532L1.33 8.684 2 12.628l6.784-1.152-.67-3.944zM1.335 8.683c-.175.03-.224.023-.186.025a.99.99 0 01.211.04c.111.032.289.1.48.244l-2.4 3.2c.534.4 1.113.486 1.46.508a4.86 4.86 0 001.093-.071l-.658-3.946zm.72.495c.238.239.31.472.325.53.017.062.004.05.004-.076h-4c0 .559.07 1.603.842 2.374l2.828-2.828zm.329.454V4.96h-4v4.672h4zm0-4.672c0-.12.007-.206.014-.264.008-.058.015-.076.011-.064l-3.794-1.264c-.176.526-.231 1.076-.231 1.592h4zm-.083-.066a1.123 1.123 0 01-.377.45c-.026.016.022-.018.2-.072L.948 1.448c-.612.189-1.697.603-2.225 1.658l3.578 1.788zm-.242.396l10.624-2.88-1.046-3.86L1.013 1.43l1.046 3.86zM12.724 2.4a5.476 5.476 0 011.548-.239v-4c-.893 0-1.787.14-2.676.401L12.724 2.4zm1.673-.243c.4-.025.633.043.773.113l1.788-3.578c-.883-.442-1.845-.587-2.81-.527l.249 3.992zm.898.17c.081.034.162.087.257.25L19.008.56c-.503-.86-1.232-1.533-2.175-1.926l-1.538 3.692zm.257.25c.067.114.176.395.176.976h4c0-1.04-.19-2.082-.72-2.992l-3.456 2.016zm.176.976v32.832h4V3.552h-4zm2 34.832h7.36v-4h-7.36v4zm7.36 0c.16 0 .198.012.157.004a1.066 1.066 0 01-.21-.072 1.58 1.58 0 01-.465-.326l2.828-2.828c-.466-.466-1.02-.622-1.315-.686a4.788 4.788 0 00-.995-.092v4zm-.304-.208a1.6 1.6 0 01-.461-.535 1.053 1.053 0 01-.094-.239c-.007-.03.011.037.011.262h4c0-.372-.025-.785-.117-1.178-.078-.33-.286-1.02-.939-1.51l-2.4 3.2zm-.544-.512v5.056h4v-5.056h-4zm23.396 5.44l-1.387-1.44-.013.012-.014.014 1.414 1.414zm-6.464 1.216l-.761 1.85.761-1.85zm-1.92-1.216l-1.414 1.414.029.029.029.027 1.356-1.47zm-1.28-1.792l-1.849.762.028.067.033.065 1.788-.894zm0-4.544l-1.81-.852-.01.025-.012.025 1.832.802zm1.28-1.856l-1.356-1.47-.03.027-.028.029 1.414 1.414zm8.384 0l-1.414 1.414.014.014.013.013 1.387-1.441zm-.272 4.096c0 1.086-.36 1.929-1.115 2.655l2.775 2.882c1.55-1.492 2.34-3.38 2.34-5.537h-4zm-1.142 2.682c-.71.71-1.576 1.078-2.745 1.078v4c2.158 0 4.065-.74 5.574-2.25l-2.829-2.828zm-2.745 1.078a3.992 3.992 0 01-1.543-.297l-1.523 3.698a7.992 7.992 0 003.066.599v-4zm-1.543-.297a4.39 4.39 0 01-1.325-.837l-2.713 2.94a8.398 8.398 0 002.515 1.595l1.523-3.698zm-1.267-.781a4.837 4.837 0 01-.906-1.272l-3.577 1.788c.432.865.982 1.64 1.654 2.312l2.829-2.828zm-.845-1.14a3.992 3.992 0 01-.297-1.542h-4c0 1.063.197 2.09.598 3.066l3.699-1.523zm-.297-1.542c0-.56.101-1.03.28-1.438l-3.665-1.604a7.525 7.525 0 00-.615 3.042h4zm.257-1.388c.254-.54.553-.962.885-1.294l-2.829-2.828a8.515 8.515 0 00-1.675 2.418l3.62 1.704zm.827-1.238a4.39 4.39 0 011.325-.837l-1.523-3.698a8.393 8.393 0 00-2.515 1.595l2.713 2.94zm1.325-.837a3.992 3.992 0 011.543-.297v-4a7.984 7.984 0 00-3.066.599l1.523 3.698zm1.543-.297c1.169 0 2.036.369 2.745 1.078l2.829-2.828c-1.51-1.51-3.416-2.25-5.575-2.25v4zm2.772 1.105c.755.726 1.115 1.569 1.115 2.655h4c0-2.156-.79-4.044-2.34-5.537l-2.775 2.882z" fill-opacity=".7"/></svg></svg>