<?xml version="1.0" encoding="utf-8"?><svg viewBox="0 0 40 40" xmlns="http://www.w3.org/2000/svg" xmlns:xlink="http://www.w3.org/1999/xlink"><style>:root>svg{display:none}:root>svg:target{display:block}</style><svg viewBox="0 0 24 24" id="icon-arrow" xmlns="http://www.w3.org/2000/svg"><path fill-rule="evenodd" clip-rule="evenodd" d="M9.793 17.957a1 1 0 010-1.414l3.836-3.836a1 1 0 000-1.414L9.793 7.457a1 1 0 011.414-1.414l3.836 3.836a3 3 0 010 4.242l-3.836 3.836a1 1 0 01-1.414 0z"/></svg><svg viewBox="0 0 40 40" id="icon-close" xmlns="http://www.w3.org/2000/svg"><path d="M20.943 20.059L31.77 9.23a.625.625 0 00-.884-.884L20.06 19.175 9.23 8.347a.625.625 0 10-.884.884l10.828 10.828L8.347 30.886a.625.625 0 10.884.884L20.06 20.942 30.886 31.77a.623.623 0 00.884 0 .625.625 0 000-.884L20.943 20.06z"/></svg></svg>